<svg width="20" height="21" viewBox="0 0 20 21" fill="none" xmlns="http://www.w3.org/2000/svg">
<path d="M9.79664 0.96875C4.38662 0.96875 0 5.35341 0 10.761C0 14.7697 2.41417 18.2146 5.86486 19.7314C5.83862 19.0494 5.86049 18.2276 6.03543 17.4844C6.22349 16.6888 7.295 12.1468 7.295 12.1468C7.295 12.1468 6.9801 11.5217 6.9801 10.5993C6.9801 9.14791 7.81982 8.06377 8.86946 8.06377C9.76165 8.06377 10.1903 8.73262 10.1903 9.53261C10.1903 10.4288 9.61732 11.7664 9.3243 13.0079C9.07938 14.0484 9.84475 14.8921 10.8725 14.8921C12.7269 14.8921 13.9777 12.5097 13.9777 9.68562C13.9777 7.53919 12.5301 5.93483 9.9016 5.93483C6.932 5.93483 5.07763 8.1512 5.07763 10.6255C5.07763 11.478 5.3313 12.0813 5.72491 12.5447C5.90422 12.7589 5.93046 12.8463 5.86486 13.0911C5.81675 13.2703 5.71179 13.703 5.66368 13.8779C5.59808 14.1271 5.3969 14.2146 5.17385 14.1228C3.80494 13.5632 3.16641 12.0681 3.16641 10.3807C3.16641 7.60039 5.51498 4.2649 10.1684 4.2649C13.9077 4.2649 16.37 6.97088 16.37 9.87359C16.37 13.7162 14.2314 16.584 11.0824 16.584C10.0241 16.584 9.03128 16.0113 8.69014 15.3643C8.69014 15.3643 8.12159 17.6199 7.99913 18.0571C7.79357 18.8134 7.38684 19.5654 7.01509 20.1555C7.91686 20.4214 8.85208 20.5569 9.79226 20.5576C15.2023 20.5576 19.5889 16.173 19.5889 10.7654C19.5889 5.35778 15.2067 0.96875 9.79664 0.96875Z" fill="#274C5B"/>
</svg>
